#amk 1

#instruments
{
@21 $00 $00 $78 $04 $00
@22 $00 $00 $dd $04 $00
@22 $00 $00 $d4 $05 $00
@22 $00 $00 $88 $05 $00
@8 $00 $00 $df $1e $00
@8 $00 $00 $98 $1e $00
@12 $00 $00 $57 $04 $00
@4 $00 $00 $60 $03 $00
@1 $00 $00 $c3 $03 $00
@1 $00 $00 $a8 $03 $00
}

#0 w255 t50$ef$00$3a$09$f1$00$27$00$f5$58$bf$db$f0$fe$07$0c$0c$f4$02
[o3@30 $fa$03$70 v255y10 b16 $fa$03$00>@31 v150y15 g+64r32. @32 v235y14$de$00$1e$d8 g+64@33^32. $df @31 v150y13 g+64r32.
o3@30 $fa$03$70 v255y10 b16 $fa$03$00>@31 v150y11 g+64r32. @32 v235$de$00$1e$d8 g+64@33^32. $df @31 v150y13 g+64r32.
o3@30 $fa$03$70 v255y10 b16 $fa$03$00>@31 v150y5 g+64r32. @32 v235y6$de$00$1e$d8 g+64@33^32. $df @31 v150y7 g+64r32.
o3@30 $fa$03$70 v255y10 b16 $fa$03$00>@31 v150y9 g+64r32. @32 v235$de$00$1e$d8 g+64@33^32. $df @31 v150y7 g+64r32.]4/
*40
[r1]100

#3 v255 y10
(1)[o2@34c+16d+16@35^8@34d+8@35^16@34d+8.c+8e8$dd$12$18$8f^8
@34c+16d+16@35^8@34d+8.d+8.c+8f+8$dd$12$1e$8f^8
@34c+16d+16@35^8@34d+8@35^16@34d+8.c+8e8$dd$12$18$8f^8
@34c+16d+16@35^8@34d+8@35^16@34d+8.c+8f+8$dd$12$1e$8f^8]/
*3
(2)[@34e16f+16@35^8@34f+8@35^16@34f+8.e8g8$dd$12$18$92^8
@34e16f+16@35^8@34f+8.f+8.e8a8$dd$12$1e$92^8
@34e16f+16@35^8@34f+8@35^16@34f+8.e8g8$dd$12$18$92^8
@34e16f+16@35^8@34f+8@35^16@34f+8.e8a8$dd$12$1e$92^8]
(1)3
(2)
(1)2
#4 v225 y10$fa$00$30
r1^1^1^1/
r1^1^1^1
o3@17 d+1^1
<d+1^1
>d+1^1
<d+1^1
>f+1^1
<f+1^1
>d+1^1
<d+1^1
[$f4$01 @17 d+16>d+8<d+16>$ed$80$a4 d+8<d+16>d+8^16<c+8>e8$dd$18$18$96^8
o2d+16>d+8<d+16>$ed$80$a9 d+8<d+16>d+8<d+16>c+8<f+8$f4$01^8]4
[$f4$01 @17 f+16>f+8<f+16>$ed$80$a4 f+8<f+16>f+8^16<e8>g8$dd$18$18$99^8
<f+16>f+8<f+16>$ed$80$a9 f+8<f+16>f+8<f+16>e8<a8$f4$01^8]2
[$f4$01 @17 d+16>d+8<d+16>$ed$80$a4 d+8<d+16>d+8^16<c+8>e8$dd$18$18$96^8
o2d+16>d+8<d+16>$ed$80$a9 d+8<d+16>d+8<d+16>c+8]<f+8$f4$01^8
*<f+1$f4$01^4[r1]100
#5@36
(3)[o4v210y20c16c16>y10c16y9v160c16<v210y8c16>v160c16<v210y7c16y9c16>y11c16<y5c16y11c16>v160y12c16<v210y6c16>v160y20c16<v210y10c16>y11c16
<y6c16y9c16>y11c16v160y8c16<v210y0c16>v130y10c16<v210y14c16y5c16>y11c16<y9c16y0c16>v160y7c16<v210y7c16>v160y0c16<v210y7c16>y0c16
<c16y10c16>y0c16v130y10c16<v210y9c16>v160y0c16<v210y13c16y7c16>y0c16<y5c16y0c16>v160y13c16<v210y14c16>v160y0c16<v210y12c16>y7c16
<y11c16y7c16>c16v160c16<v210c16>v140y11c16<v210y10c16y9c16>y8c16<y14c16y13c16>v160y7c16<y8c16>v140y9c16<v210y13c16>y11c16]/
(3)10
#2 @37q6f
o3(4)[v160y20d+16v170d+16v160y13c+16y11d+16y6d+16d+16v140y12c+16y6v160d+16y7d+16y11v140d+16y14v160c+16y7d+16y9v140e16v160y20c+16y7f+16y8c+16
v140y11d+16v160y6d+16y7c+16v140y0d+16v160d+16y7d+16v140y9c+16v160y0d+16y13d+16y7d+16y0c+16v140y11d+16v160y6f+16y0c+16y6e16y0c+16
d+16y7d+16y0c+16y13d+16y6d+16y0d+16y14c+16y6d+16v140y10d+16y0d+16v160c+16y14d+16v140y10f+16y11c+16y14d+16y0e16
v160y13d+16v140y11d+16c+16d+16v160y7d+16y13d+16v140y9c+16v160y12d+16d+16y20d+16y14c+16y6d+16y13f+16y7c+16v140y9e16v160y14c+16]/
(4)3
(5)[v160y20f+16v170f+16v160y13e16y11f+16y6f+16f+16v140y12e16y6v160f+16y7f+16y11v140f+16y14v160e16y7f+16y9v140g16v160y20e16y7a16y8e16
v140y11f+16v160y6f+16y7e16v140y0f+16v160f+16y7f+16v140y9e16v160y0f+16y13f+16y7f+16y0e16v140y11f+16v160y6a16y0e16y6g16y0e16
f+16y7f+16y0e16y13f+16y6f+16y0f+16y14e16y6f+16v140y10f+16y0f+16v160e16y14f+16v140y10a16y11e16y14f+16y0g16
v160y13f+16v140y11f+16e16f+16v160y7f+16y13f+16v140y9e16v160y12f+16f+16y20f+16y14e16y6f+16y13a16y7e16v140y9g16v160y14e16]
(4)3
(5)
(4)2
[r1]100
#1 v120 y10$f4$03
[r1]4/
[r1]20
o5@38d+1^1@39^1^1
@38a+1^1@39^1^1
>$f4$01@38c+1^1@39^1c+2$dd$60$60$bf$f4$01^2
$f4$01@38d+1^1@39^1^4d+1$dd$00$30$b3$f4$01^1..[r1]100
               